PathFileType	4	(X/Y/Z)	output.trc
DataRate	CameraRate	NumFrames	NumMarkers	Units	OrigDataRate	OrigDataStartFrame	OrigNumFrames
50	50	16	18	mm	50	396	1
Frame#	Time	K4ABT_JOINT_PELVIS			K4ABT_JOINT_SPINE_NAVEL			K4ABT_JOINT_SPINE_CHEST			K4ABT_JOINT_NECK			K4ABT_JOINT_CLAVICLE_LEFT			K4ABT_JOINT_SHOULDER_LEFT			K4ABT_JOINT_ELBOW_LEFT			K4ABT_JOINT_WRIST_LEFT			K4ABT_JOINT_HAND_LEFT			K4ABT_JOINT_HANDTIP_LEFT			K4ABT_JOINT_THUMB_LEFT			K4ABT_JOINT_CLAVICLE_RIGHT			K4ABT_JOINT_SHOULDER_RIGHT			K4ABT_JOINT_ELBOW_RIGHT			K4ABT_JOINT_WRIST_RIGHT			K4ABT_JOINT_HAND_RIGHT			K4ABT_JOINT_HANDTIP_RIGHT			K4ABT_JOINT_THUMB_RIGHT		
		X1	Y1	Z1	X2	Y2	Z2	X3	Y3	Z3	X4	Y4	Z4	X5	Y5	Z5	X6	Y6	Z6	X7	Y7	Z7	X8	Y8	Z8	X9	Y9	Z9	X10	Y10	Z10	X11	Y11	Z11	X12	Y12	Z12	X13	Y13	Z13	X14	Y14	Z14	X15	Y15	Z15	X16	Y16	Z16	X17	Y17	Z17	X18	Y18	Z18
395	13466888.000000	151.797287	-177.067978	2179.761230	144.639786	-360.733459	2155.212402	135.970551	-506.185303	2127.898682	124.051483	-731.443787	2121.590576	160.740906	-696.489929	2126.852051	304.771088	-675.938110	2157.032471	405.587738	-434.545105	2275.643066	380.733582	-297.884003	2078.604004	340.347626	-208.036865	2060.881836	358.918732	-318.792816	2062.443848	342.147980	-169.091339	2038.504395	91.216194	-692.014587	2120.596436	-38.451405	-650.714722	2107.721924	-212.021194	-425.480011	2038.460205	-198.115402	-484.248077	1801.918457	-188.605026	-539.419922	1709.835571	-161.145508	-595.527832	1800.858643	-149.988388	-538.182373	1718.370239
396	13500211.000000	161.570770	-176.567368	2202.694580	149.446320	-358.971161	2182.810303	132.034393	-501.069916	2149.407471	123.308243	-724.133240	2133.890381	159.346039	-689.130066	2139.214355	303.224030	-664.223389	2158.927490	404.032593	-440.208557	2303.088623	376.777100	-274.154022	2133.287598	327.736023	-192.143921	2106.456787	380.681213	-290.125824	2106.948486	273.516846	-214.638306	2080.813721	90.155449	-685.572632	2135.855957	-34.714462	-636.769165	2115.873047	-204.811646	-416.251709	2034.232422	-195.045456	-468.340057	1798.018799	-176.226212	-474.187103	1692.986938	-169.822327	-522.552795	1790.986328	-144.728729	-482.573151	1693.413452
397	13533555.000000	168.313858	-177.651443	2221.877197	150.351181	-357.903015	2205.318359	127.911537	-497.108154	2169.746826	116.335915	-715.229187	2133.855469	152.404678	-681.792114	2142.715088	294.468903	-659.418152	2166.396484	402.413025	-442.982849	2310.927734	359.491150	-253.319092	2176.363281	319.369263	-197.356155	2106.381592	368.863892	-278.509918	2162.076172	276.828400	-211.274734	2084.944336	84.064903	-676.931885	2138.971924	-38.991653	-627.247009	2119.800049	-199.765884	-403.028503	2040.456787	-178.099792	-416.219910	1802.331665	-185.083282	-376.115601	1704.772949	-169.409271	-442.283844	1789.051514	-168.991486	-396.833008	1677.243530
398	13566888.000000	168.590775	-187.486328	2243.614990	150.880844	-366.981720	2222.316406	129.563477	-505.093933	2182.913574	118.668045	-720.095886	2132.874023	154.418472	-687.558289	2145.244629	295.236572	-667.862793	2176.240479	403.733063	-463.739990	2336.565186	360.097168	-284.478638	2189.216064	322.311737	-219.828842	2125.953857	363.989899	-316.263519	2158.565918	283.132141	-230.295761	2094.403076	86.405121	-682.062134	2139.122559	-33.258041	-626.336975	2116.777832	-186.311508	-393.357727	2049.995850	-173.388779	-347.305573	1815.724609	-185.933975	-344.544525	1710.960571	-152.364548	-325.539337	1811.968872	-141.668411	-331.642456	1683.453369
399	13600222.000000	169.146667	-193.452164	2253.784424	152.450516	-373.616089	2231.988281	131.878647	-511.507812	2189.682373	119.989479	-726.516418	2136.629395	156.040939	-694.134460	2149.225342	299.232666	-683.090332	2175.650879	402.786743	-482.567902	2345.219971	359.989532	-314.205078	2184.109619	329.728485	-231.205368	2140.855713	359.657745	-335.343658	2161.903564	281.794342	-247.632172	2093.981445	87.767159	-688.354553	2143.649658	-31.012177	-630.214111	2120.020264	-173.307983	-386.424133	2064.808105	-175.745331	-314.539642	1835.917358	-177.483444	-291.821777	1732.485840	-148.137146	-302.195038	1836.420532	-126.445381	-305.037170	1706.148438
400	13633533.000000	176.056107	-213.184418	2263.201904	159.226990	-393.557068	2238.354004	137.316528	-530.367981	2191.752197	124.383705	-746.227783	2139.304443	160.779556	-713.724548	2151.245361	303.824188	-698.508850	2179.056396	401.555573	-502.040863	2358.131592	357.589264	-314.670990	2218.600586	333.238831	-243.196823	2155.049072	356.229431	-346.440582	2187.869385	292.653595	-256.540466	2113.794922	92.196487	-707.902100	2146.789062	-26.808247	-646.934204	2129.799316	-152.533249	-393.313599	2073.648682	-149.304962	-280.875763	1860.818970	-145.246384	-255.264069	1757.766846	-149.890320	-244.944214	1866.034424	-118.707245	-262.944550	1744.424438
401	13666888.000000	184.618332	-222.546722	2266.351318	166.846710	-402.785034	2242.926025	142.833740	-539.523132	2197.748047	126.729012	-753.236694	2138.964600	163.526627	-721.746338	2152.065186	306.115051	-712.118347	2183.502930	408.473816	-533.008667	2377.045410	374.764069	-343.530945	2238.018555	336.470093	-271.420471	2182.797852	365.725555	-374.900879	2156.915039	296.976318	-279.418793	2149.195801	95.166130	-714.666687	2147.364502	-22.338285	-652.164734	2127.161621	-142.733276	-391.317627	2104.000488	-133.568665	-251.906662	1908.339355	-130.408798	-236.586807	1803.368286	-142.069748	-220.476028	1910.253540	-110.242058	-238.739014	1791.073608
402	13700222.000000	188.246033	-229.351517	2281.531738	172.745636	-409.009888	2251.975830	150.730316	-545.982544	2206.207764	131.665527	-758.789246	2144.577881	169.066574	-727.592712	2156.757080	312.599823	-719.432800	2184.507812	410.866394	-544.439941	2384.094238	354.383453	-355.808411	2251.192383	329.109100	-280.714813	2192.458984	364.279510	-384.397980	2176.281494	288.406555	-284.598846	2165.557373	100.556274	-720.259277	2154.833740	-18.679752	-660.876038	2134.824707	-139.656647	-399.080200	2133.794678	-127.030968	-236.433990	1956.990479	-130.070862	-198.966660	1857.671387	-126.572533	-161.761566	1959.837402	-101.119873	-183.003540	1841.052002
403	13733555.000000	193.404587	-235.395508	2296.232910	176.003983	-414.121124	2259.961914	154.791306	-551.304504	2213.266357	135.467987	-762.383728	2144.181641	173.017410	-731.501892	2157.204590	317.250000	-725.784302	2183.889648	410.771912	-559.955811	2394.309814	359.583801	-372.856812	2256.119141	325.699188	-294.147156	2206.786865	368.752960	-391.033630	2174.065186	280.575745	-301.131805	2186.869629	104.311821	-724.183716	2156.040039	-18.225193	-669.167053	2142.099854	-119.654640	-400.288452	2173.944336	-113.648277	-220.289490	2013.531250	-117.980972	-186.018646	1912.825928	-109.409286	-132.105438	2007.242920	-86.536934	-163.535263	1895.889282
404	13766888.000000	190.038101	-233.006180	2308.747070	176.855026	-411.525818	2265.799805	160.192459	-549.222473	2216.603516	143.564285	-762.753723	2150.940430	180.980469	-730.397217	2161.474121	327.281982	-722.227295	2178.398438	417.699402	-581.240540	2409.163330	366.890289	-393.049500	2270.321777	339.271973	-310.144684	2223.033936	381.078613	-397.827301	2168.307373	285.224518	-338.478119	2199.673828	111.789223	-725.192444	2164.171143	-14.575340	-677.197205	2152.245117	-106.226654	-412.958313	2230.910889	-91.030510	-218.915176	2086.515625	-96.809570	-187.032013	1984.559448	-78.854172	-139.990265	2081.899170	-65.753326	-168.424545	1965.551392
405	13800222.000000	193.617523	-234.036209	2321.290771	181.213120	-410.596802	2268.798584	167.726639	-548.096558	2216.884277	153.094711	-764.701721	2159.081299	190.303848	-731.231079	2167.316650	337.116547	-718.164368	2179.888916	431.844971	-588.189453	2416.335205	367.886902	-435.789642	2242.299561	313.462402	-354.214020	2224.623535	389.925476	-404.726349	2160.556152	274.095062	-386.443878	2183.253174	120.943916	-727.164185	2172.034424	-7.261783	-681.622192	2169.004150	-94.335243	-426.690460	2280.023193	-76.708763	-222.012680	2150.143799	-78.842850	-180.290527	2051.322266	-49.910847	-134.699020	2147.050537	-51.125690	-166.931396	2033.211426
406	13833533.000000	195.294724	-234.231903	2327.726074	182.774490	-409.548584	2273.500488	171.684967	-548.425049	2226.448730	161.290771	-763.061035	2163.786377	197.715469	-729.275452	2173.035400	342.884003	-709.549927	2189.141357	437.630829	-594.625122	2432.019531	368.472198	-463.650085	2244.282715	300.111938	-396.048035	2219.521240	397.586731	-398.802246	2165.649658	284.200775	-428.142731	2165.397217	128.518402	-726.531311	2177.312256	-0.187874	-684.611389	2185.163818	-76.620949	-447.795441	2334.666992	-74.592781	-240.110382	2210.159180	-66.053772	-190.500580	2115.858887	-32.507080	-112.980362	2185.545898	-46.731472	-173.654968	2103.865723
407	13866888.000000	199.661118	-232.598053	2331.885986	188.233841	-406.335297	2270.872070	180.059464	-546.621216	2226.067871	170.723236	-764.548096	2172.896973	206.894928	-729.362183	2177.669922	353.645386	-712.210938	2172.770020	463.574951	-544.837463	2376.650879	374.756165	-511.987640	2156.285645	279.134552	-496.264435	2179.203857	343.389038	-483.442017	2088.687744	253.966339	-526.355042	2108.811768	138.047104	-728.239746	2187.764893	8.384481	-691.609741	2206.240479	-52.301247	-466.406830	2380.556152	-41.555336	-230.415237	2324.104492	-61.240570	-237.697006	2218.960205	-32.847820	-136.024353	2188.625977	-30.774368	-186.101318	2192.643555
408	13900222.000000	201.620819	-225.335144	2333.680908	193.686981	-399.549438	2272.167480	189.049088	-541.147949	2229.921631	180.376099	-761.362732	2184.391846	216.030701	-725.170959	2184.808838	362.076202	-707.441467	2167.125732	466.263580	-503.884369	2339.631104	362.958557	-529.772522	2124.094238	270.102448	-507.949127	2153.486572	356.680237	-502.646515	2082.628174	242.212845	-548.231201	2108.968018	148.195465	-725.228210	2201.064941	20.798668	-689.000793	2233.311523	-16.842726	-473.243317	2426.221680	-23.593582	-235.611206	2373.722168	-33.182583	-217.926575	2268.152344	-18.831030	-110.151649	2285.437500	-21.497046	-183.594604	2252.254883
409	13933555.000000	214.205490	-207.424454	2332.386475	206.274750	-383.349915	2277.466064	201.519608	-525.840210	2239.749268	191.705551	-746.869141	2201.761719	226.840988	-710.497314	2198.424561	369.245880	-688.933777	2165.198486	481.675659	-468.138702	2307.512695	366.235321	-519.183533	2103.597656	271.850769	-512.600037	2134.606445	269.222992	-582.146790	2047.203491	244.264267	-582.356018	2107.993652	160.574463	-710.576660	2219.653076	35.910206	-676.845154	2262.216309	-0.205677	-482.571899	2476.029785	-19.135986	-242.891373	2441.772705	-27.555513	-212.575821	2339.289307	11.937763	-116.809761	2302.825684	-0.317238	-178.850754	2326.060547
410	13966877.000000	223.050018	-190.025467	2341.470215	217.694000	-366.655609	2289.856934	214.216812	-508.710144	2251.531494	207.753433	-728.812561	2210.279053	241.194397	-691.327393	2204.389648	379.414673	-660.389648	2163.189453	482.695770	-405.052063	2237.004395	343.609344	-520.805359	2080.364258	256.671936	-518.047546	2128.399658	261.201935	-597.832275	2050.642822	237.306549	-591.407288	2126.129883	177.405380	-693.947754	2231.708984	55.500492	-669.119263	2285.915283	28.846525	-486.827301	2510.588135	-10.114570	-249.963089	2477.170654	-5.619888	-196.157089	2384.808105	7.863389	-120.737633	2306.439697	10.138683	-174.309708	2376.696045
